<svg width="634" height="634" viewBox="0 0 634 634" fill="none" xmlns="http://www.w3.org/2000/svg">
<path d="M333.333 300H483.333C492.538 300 500 307.462 500 316.667C500 325.871 492.538 333.333 483.333 333.333H333.333V483.333C333.333 492.538 325.871 500 316.667 500C307.462 500 300 492.538 300 483.333V333.333H150C140.795 333.333 133.333 325.871 133.333 316.667C133.333 307.462 140.795 300 150 300H300V150C300 140.795 307.462 133.333 316.667 133.333C325.871 133.333 333.333 140.795 333.333 150V300ZM83.3333 0C92.5381 0 100 7.46192 100 16.6667C100 25.8714 92.5381 33.3333 83.3333 33.3333C55.7191 33.3333 33.3333 55.7191 33.3333 83.3333C33.3333 92.5381 25.8714 100 16.6667 100C7.46192 100 0 92.5381 0 83.3333C0 37.3096 37.3096 0 83.3333 0ZM550 33.3333C540.795 33.3333 533.333 25.8714 533.333 16.6667C533.333 7.46192 540.795 0 550 0C596.024 0 633.333 37.3096 633.333 83.3333V85.3851C633.333 94.5898 625.871 102.052 616.667 102.052C607.462 102.052 600 94.5898 600 85.3851V83.3333C600 55.7191 577.614 33.3333 550 33.3333ZM0 150C0 140.795 7.46192 133.333 16.6667 133.333C25.8714 133.333 33.3333 140.795 33.3333 150V183.333C33.3333 192.538 25.8714 200 16.6667 200C7.46192 200 0 192.538 0 183.333V150ZM0 250C0 240.795 7.46192 233.333 16.6667 233.333C25.8714 233.333 33.3333 240.795 33.3333 250V283.333C33.3333 292.538 25.8714 300 16.6667 300C7.46192 300 0 292.538 0 283.333V250ZM0 350C0 340.795 7.46192 333.333 16.6667 333.333C25.8714 333.333 33.3333 340.795 33.3333 350V383.333C33.3333 392.538 25.8714 400 16.6667 400C7.46192 400 0 392.538 0 383.333V350ZM0 450C0 440.795 7.46192 433.333 16.6667 433.333C25.8714 433.333 33.3333 440.795 33.3333 450V483.333C33.3333 492.538 25.8714 500 16.6667 500C7.46192 500 0 492.538 0 483.333V450ZM600 150C600 140.795 607.462 133.333 616.667 133.333C625.871 133.333 633.333 140.795 633.333 150V183.333C633.333 192.538 625.871 200 616.667 200C607.462 200 600 192.538 600 183.333V150ZM600 250C600 240.795 607.462 233.333 616.667 233.333C625.871 233.333 633.333 240.795 633.333 250V283.333C633.333 292.538 625.871 300 616.667 300C607.462 300 600 292.538 600 283.333V250ZM600 350C600 340.795 607.462 333.333 616.667 333.333C625.871 333.333 633.333 340.795 633.333 350V383.333C633.333 392.538 625.871 400 616.667 400C607.462 400 600 392.538 600 383.333V350ZM600 450C600 440.795 607.462 433.333 616.667 433.333C625.871 433.333 633.333 440.795 633.333 450V483.333C633.333 492.538 625.871 500 616.667 500C607.462 500 600 492.538 600 483.333V450ZM0 550C0 540.795 7.46192 533.333 16.6667 533.333C25.8714 533.333 33.3333 540.795 33.3333 550C33.3333 577.614 55.7191 600 83.3333 600C92.5381 600 100 607.462 100 616.667C100 625.871 92.5381 633.333 83.3333 633.333C37.3096 633.333 0 596.024 0 550ZM150 33.3333C140.795 33.3333 133.333 25.8714 133.333 16.6667C133.333 7.46192 140.795 0 150 0H183.333C192.538 0 200 7.46192 200 16.6667C200 25.8714 192.538 33.3333 183.333 33.3333H150ZM250 33.3333C240.795 33.3333 233.333 25.8714 233.333 16.6667C233.333 7.46192 240.795 0 250 0H283.333C292.538 0 300 7.46192 300 16.6667C300 25.8714 292.538 33.3333 283.333 33.3333H250ZM350 33.3333C340.795 33.3333 333.333 25.8714 333.333 16.6667C333.333 7.46192 340.795 0 350 0H383.333C392.538 0 400 7.46192 400 16.6667C400 25.8714 392.538 33.3333 383.333 33.3333H350ZM450 33.3333C440.795 33.3333 433.333 25.8714 433.333 16.6667C433.333 7.46192 440.795 0 450 0H483.333C492.538 0 500 7.46192 500 16.6667C500 25.8714 492.538 33.3333 483.333 33.3333H450ZM150 633.333C140.795 633.333 133.333 625.871 133.333 616.667C133.333 607.462 140.795 600 150 600H183.333C192.538 600 200 607.462 200 616.667C200 625.871 192.538 633.333 183.333 633.333H150ZM250 633.333C240.795 633.333 233.333 625.871 233.333 616.667C233.333 607.462 240.795 600 250 600H283.333C292.538 600 300 607.462 300 616.667C300 625.871 292.538 633.333 283.333 633.333H250ZM350 633.333C340.795 633.333 333.333 625.871 333.333 616.667C333.333 607.462 340.795 600 350 600H383.333C392.538 600 400 607.462 400 616.667C400 625.871 392.538 633.333 383.333 633.333H350ZM450 633.333C440.795 633.333 433.333 625.871 433.333 616.667C433.333 607.462 440.795 600 450 600H483.333C492.538 600 500 607.462 500 616.667C500 625.871 492.538 633.333 483.333 633.333H450ZM550 633.333C540.795 633.333 533.333 625.871 533.333 616.667C533.333 607.462 540.795 600 550 600C577.614 600 600 577.614 600 550C600 540.795 607.462 533.333 616.667 533.333C625.871 533.333 633.333 540.795 633.333 550C633.333 596.024 596.024 633.333 550 633.333Z" fill="#072D50"/>
</svg>
