<svg width="871" height="535" viewBox="0 0 871 535" fill="none" xmlns="http://www.w3.org/2000/svg">
<g filter="url(#filter0_d_34_3383)">
<path d="M110.428 55.3717L206.949 22L215.416 52.391M223.883 85.0675L41 38.6858M223.883 85.0675L288.231 95.7546M223.883 85.0675L215.416 52.391M223.883 85.0675L301.778 63.7146M288.231 95.7546L301.778 63.7146M288.231 95.7546L437.247 79.1361M301.778 63.7146L215.416 52.391M301.778 63.7146L437.247 79.1361M301.778 63.7146L355.965 22M215.416 52.391L355.965 22M355.965 22L386.446 45.3717M437.247 79.1361L564.249 69.431M437.247 79.1361L386.446 45.3717M437.247 79.1361L563.402 169.248M564.249 69.431L386.446 45.3717M564.249 69.431L563.402 169.248M564.249 69.431L689.557 36.7546M563.402 169.248L689.557 36.7546M563.402 169.248L667.544 186.927M689.557 36.7546L743.745 102.107M689.557 36.7546L667.544 186.927M743.745 102.107L667.544 186.927M743.745 102.107L792.12 33.4404M743.745 102.107L763.219 159.813M743.745 102.107L787.143 124.383M667.544 186.927L802.166 235.326M667.544 186.927L694.637 252.28M792.12 33.4404L841.067 156.87M792.12 33.4404L787.143 124.383M792.12 33.4404L806.617 166.098M841.067 156.87L863.447 211.956M841.067 156.87L806.617 166.098M802.166 235.326L851.187 264.174M802.166 235.326L863.447 211.956M802.166 235.326L721.731 317.633M802.166 235.326L763.219 159.813M802.166 235.326L787.143 124.383M802.166 235.326L806.617 166.098M802.166 235.326L869 376.742M851.187 264.174L863.447 211.956M851.187 264.174L869 376.742M721.731 317.633L694.637 252.28M721.731 317.633L869 376.742M721.731 317.633L590.768 407.45M694.637 252.28L763.219 159.813M869 376.742L798.773 431.008M869 376.742L833.294 529.776L751.619 512.948M869 376.742L812.99 444.845L751.619 512.948M590.768 407.45L732.544 359.545M590.768 407.45L490.499 518.48M590.768 407.45L642.904 446.362M590.768 407.45L512.438 423.059M751.619 512.948L798.773 431.008M751.619 512.948L611.582 521.558M798.773 431.008L642.904 446.362M798.773 431.008L732.544 359.545M642.904 446.362L732.544 359.545M642.904 446.362L611.582 521.558M642.904 446.362L490.499 518.48M611.582 521.558L490.499 518.48M490.499 518.48C490.499 520.943 410.947 529.689 371.171 533.755M490.499 518.48L498.554 483.445M512.438 423.059L498.554 483.445M512.438 423.059L443.076 481.158M371.171 533.755L443.076 481.158M371.171 533.755L303.823 521.558M498.554 483.445L443.076 481.158" stroke="url(#paint0_linear_34_3383)" stroke-width="2"/>
</g>
<defs>
<filter id="filter0_d_34_3383" x="0.75415" y="0.707031" width="869.264" height="534.057" filterUnits="userSpaceOnUse" color-interpolation-filters="sRGB">
<feFlood flood-opacity="0" result="BackgroundImageFix"/>
<feColorMatrix in="SourceAlpha" type="matrix" values="0 0 0 0 0 0 0 0 0 0 0 0 0 0 0 0 0 0 127 0" result="hardAlpha"/>
<feOffset dx="-30" dy="-10"/>
<feGaussianBlur stdDeviation="5"/>
<feColorMatrix type="matrix" values="0 0 0 0 0 0 0 0 0 0 0 0 0 0 0 0 0 0 1 0"/>
<feBlend mode="normal" in2="BackgroundImageFix" result="effect1_dropShadow_34_3383"/>
<feBlend mode="normal" in="SourceGraphic" in2="effect1_dropShadow_34_3383" result="shape"/>
</filter>
<linearGradient id="paint0_linear_34_3383" x1="836.88" y1="253.687" x2="149.114" y2="49.6511" gradientUnits="userSpaceOnUse">
<stop stop-color="white" stop-opacity="0.07"/>
<stop offset="0.276014" stop-color="white"/>
<stop offset="1" stop-color="white" stop-opacity="0"/>
</linearGradient>
</defs>
</svg>
