<svg width="34" height="34" viewBox="0 0 34 34" fill="none" xmlns="http://www.w3.org/2000/svg">
    <g clipPath="url(#clip0_34_4841)">
        <path
            d="M13.6822 13.471C13.6822 11.8672 12.5911 11.8672 12.5911 11.8672H12.0134H8.10205V15.3086H12.3128C13.0405 15.3082 13.6822 15.0755 13.6822 13.471Z"
            fill="white" />
        <path
            d="M12.5914 17.6856H8.10205V21.8073H12.3841C13.0283 21.7889 14.2172 21.5871 14.2172 19.8038C14.2172 17.664 12.5914 17.6856 12.5914 17.6856Z"
            fill="white" />
        <path
            d="M24.0846 15.3086C21.7023 15.3086 21.3701 17.686 21.3701 17.686H26.4362C26.4366 17.686 26.4668 15.3086 24.0846 15.3086Z"
            fill="white" />
        <path
            d="M17 0C7.61113 0 0 7.61148 0 17C0 26.3885 7.61113 34 17 34C26.3889 34 34 26.3885 34 17C34 7.61148 26.3889 0 17 0ZM20.7064 10.0341H27.0696V11.9332H20.7064V10.0341ZM17.4904 19.9951C17.4904 24.7023 12.5917 24.5475 12.5917 24.5475H8.10226H7.97044H4.56626V9.12557H7.97044H8.10226H12.5913C15.0303 9.12557 16.9555 10.472 16.9555 13.2317C16.9555 15.9917 14.6021 16.1666 14.6021 16.1666C17.7043 16.1666 17.4904 19.9951 17.4904 19.9951ZM24.1148 22.4275C26.6783 22.4275 26.5875 20.7683 26.5875 20.7683H29.3016C29.3016 25.1715 24.0243 24.8699 24.0243 24.8699C17.6915 24.8699 18.0988 18.9743 18.0988 18.9743C18.0988 18.9743 18.0939 13.0494 24.0237 13.0494C30.2661 13.0494 29.392 19.7433 29.392 19.7433H21.4007C21.4007 22.609 24.1148 22.4275 24.1148 22.4275Z"
            fill="white" />
    </g>
    <defs>
        <clipPath id="clip0_34_4841">
            <rect width="34" height="34" fill="white" />
        </clipPath>
    </defs>
</svg>