<svg width="36" height="34" viewBox="0 0 36 34" fill="none" xmlns="http://www.w3.org/2000/svg">
    <g clipPath="url(#clip0_34_4834)">
        <path
            d="M21.4453 17C21.4453 18.7971 19.9028 20.2539 18 20.2539C16.0972 20.2539 14.5547 18.7971 14.5547 17C14.5547 15.2029 16.0972 13.7461 18 13.7461C19.9028 13.7461 21.4453 15.2029 21.4453 17Z"
            fill="white" />
        <path
            d="M26.0575 11.2427C25.8919 10.8188 25.6277 10.4352 25.2843 10.1203C24.9509 9.79602 24.545 9.54648 24.0959 9.39006C23.7317 9.25647 23.1846 9.09746 22.1768 9.05414C21.0867 9.00719 20.7599 8.99707 18.0001 8.99707C15.2401 8.99707 14.9132 9.00693 13.8234 9.05388C12.8157 9.09746 12.2683 9.25647 11.9044 9.39006C11.4553 9.54648 11.0491 9.79602 10.7159 10.1203C10.3726 10.4352 10.1084 10.8186 9.94247 11.2427C9.80103 11.5867 9.63266 12.1036 9.58679 13.0554C9.53708 14.0847 9.52637 14.3934 9.52637 17.0001C9.52637 19.6065 9.53708 19.9152 9.58679 20.9448C9.63266 21.8965 9.80103 22.4132 9.94247 22.7572C10.1084 23.1813 10.3723 23.5647 10.7156 23.8796C11.0491 24.2038 11.455 24.4534 11.9041 24.6098C12.2683 24.7437 12.8157 24.9027 13.8234 24.946C14.9132 24.9929 15.2398 25.0028 17.9998 25.0028C20.7602 25.0028 21.087 24.9929 22.1766 24.946C23.1843 24.9027 23.7317 24.7437 24.0959 24.6098C24.9973 24.2814 25.7098 23.6085 26.0575 22.7572C26.1989 22.4132 26.3673 21.8965 26.4135 20.9448C26.4632 19.9152 26.4736 19.6065 26.4736 17.0001C26.4736 14.3934 26.4632 14.0847 26.4135 13.0554C26.3676 12.1036 26.1992 11.5867 26.0575 11.2427V11.2427ZM18.0001 22.0124C15.0687 22.0124 12.6924 19.7684 12.6924 16.9998C12.6924 14.2312 15.0687 11.9872 18.0001 11.9872C20.9313 11.9872 23.3076 14.2312 23.3076 16.9998C23.3076 19.7684 20.9313 22.0124 18.0001 22.0124ZM23.5175 12.9604C22.8325 12.9604 22.2771 12.4359 22.2771 11.789C22.2771 11.142 22.8325 10.6175 23.5175 10.6175C24.2025 10.6175 24.7578 11.142 24.7578 11.789C24.7575 12.4359 24.2025 12.9604 23.5175 12.9604Z"
            fill="white" />
        <path
            d="M18 0C8.06039 0 0 7.61259 0 17C0 26.3874 8.06039 34 18 34C27.9396 34 36 26.3874 36 17C36 7.61259 27.9396 0 18 0ZM28.2736 21.0246C28.2236 22.0637 28.0486 22.7732 27.7932 23.3942C27.2563 24.7055 26.1587 25.742 24.7703 26.2491C24.1131 26.4904 23.3616 26.6554 22.2616 26.7028C21.1594 26.7503 20.8073 26.7617 18.0003 26.7617C15.193 26.7617 14.8412 26.7503 13.7387 26.7028C12.6387 26.6554 11.8872 26.4904 11.2299 26.2491C10.54 26.004 9.91544 25.6198 9.39908 25.1231C8.87338 24.6357 8.46661 24.0455 8.20706 23.3942C7.95163 22.7735 7.77667 22.0637 7.72668 21.0248C7.67587 19.9836 7.66406 19.6511 7.66406 17C7.66406 14.3489 7.67587 14.0164 7.72641 12.9754C7.7764 11.9363 7.95108 11.2268 8.20651 10.6058C8.46606 9.95445 8.87311 9.36432 9.39908 8.87691C9.91516 8.38016 10.54 7.99599 11.2297 7.75085C11.8872 7.50961 12.6384 7.34463 13.7387 7.29716C14.8409 7.24969 15.193 7.23828 18 7.23828C20.807 7.23828 21.1591 7.24969 22.2613 7.29742C23.3616 7.34463 24.1128 7.50961 24.7703 7.7506C25.46 7.99573 26.0848 8.38016 26.6012 8.87691C27.1269 9.36458 27.5339 9.95445 27.7932 10.6058C28.0489 11.2268 28.2236 11.9363 28.2739 12.9754C28.3241 14.0164 28.3359 14.3489 28.3359 17C28.3359 19.6511 28.3241 19.9836 28.2736 21.0246V21.0246Z"
            fill="white" />
    </g>
    <defs>
        <clipPath id="clip0_34_4834">
            <rect width="36" height="34" fill="white" />
        </clipPath>
    </defs>
</svg>