<svg width="35" height="34" viewBox="0 0 35 34" fill="none" xmlns="http://www.w3.org/2000/svg">
    <g clipPath="url(#clip0_34_4838)">
        <path
            d="M17.5 0C7.83499 0 0 7.61113 0 17C0 26.3889 7.83499 34 17.5 34C27.165 34 35 26.3889 35 17C35 7.61113 27.165 0 17.5 0ZM24.1763 8.65739L21.7559 8.65843C19.8578 8.65843 19.4908 9.53461 19.4908 10.8202V13.655H24.017L24.0148 18.095H19.4912V29.489H14.7702V18.095H10.8237V13.655H14.7702V10.3805C14.7702 6.58052 17.1602 4.51096 20.6495 4.51096L24.1767 4.51617V8.65739H24.1763Z"
            fill="white" />
    </g>
    <defs>
        <clipPath id="clip0_34_4838">
            <rect width="35" height="34" fill="white" />
        </clipPath>
    </defs>
</svg>