<svg width="60" height="60" viewBox="0 0 60 60" fill="none" xmlns="http://www.w3.org/2000/svg">
    <g clipPath="url(#clip0_14959_2)">
        <path
            d="M30 0C13.431 0 0 13.431 0 30C0 46.569 13.431 60 30 60C46.569 60 60 46.569 60 30C59.981 13.439 46.561 0.019 30 0ZM30 58C14.536 58 2 45.464 2 30C2 14.536 14.536 2 30 2C45.464 2 58 14.536 58 30C57.982 45.457 45.457 57.982 30 58Z"
            fill="white" />
        <path
            d="M45.1771 49.833C53.6841 43.325 57.0971 32.12 53.6631 21.975C50.2291 11.83 40.7111 5.002 30.0001 5C22.8261 5.003 15.9981 8.084 11.2501 13.463C10.8841 13.877 10.9241 14.509 11.3381 14.875C11.7521 15.241 12.3841 15.201 12.7501 14.787C18.4401 8.329 27.2601 5.589 35.6071 7.687C43.9541 9.785 50.4311 16.369 52.3911 24.75C54.3511 33.131 51.4661 41.905 44.9151 47.487C43.2191 44.121 39.7701 41.998 36.0001 42V39.764C37.1541 39.145 38.1391 38.252 38.8671 37.164C39.3671 36.105 39.6641 34.962 39.7431 33.794C40.2391 33.686 40.6931 33.438 41.0521 33.08C41.5521 32.549 41.8141 31.837 41.7801 31.109C41.7751 30.645 41.8711 30.185 42.0621 29.761C42.1361 29.585 42.2331 29.385 42.3391 29.167L42.4291 28.981C43.1251 27.887 43.1851 26.504 42.5851 25.354C43.1411 22.738 43.5261 18.321 40.9501 15.063C38.8191 12.366 35.1361 11 30.0001 11C24.8641 11 21.1701 12.369 19.0401 15.07C16.4641 18.336 16.8541 22.743 17.4141 25.353C16.8141 26.496 16.8711 27.872 17.5621 28.962L17.6621 29.162C17.7681 29.38 17.8621 29.58 17.9401 29.762C18.1291 30.185 18.2281 30.642 18.2311 31.105C18.1351 32.386 19.0081 33.539 20.2681 33.793C20.3461 34.958 20.6391 36.099 21.1321 37.158C21.8601 38.248 22.8451 39.143 24.0001 39.762V42C20.2301 41.998 16.7811 44.121 15.0841 47.487C6.75812 40.398 4.57912 28.425 9.87412 18.857C10.1221 18.377 9.94312 17.786 9.47112 17.524C8.99912 17.262 8.40312 17.423 8.12612 17.887C2.12912 28.72 4.97112 42.31 14.8051 49.833C16.4751 51.114 21.9191 54.954 29.8801 54.989C37.9781 55.025 43.5221 51.102 45.1771 49.833ZM26.0001 41.216C27.0521 42.306 28.4861 42.945 30.0001 43C31.5161 42.946 32.9511 42.303 34.0001 41.208V43C34.0001 45.209 32.2091 47 30.0001 47C27.7911 47 26.0001 45.209 26.0001 43V41.216ZM20.6101 16.309C22.3421 14.113 25.5001 13 30.0001 13C34.5001 13 37.6491 14.11 39.3811 16.3C41.2321 18.642 41.1551 21.876 40.7811 24.146C40.6581 24.125 40.5341 24.112 40.4101 24.108C40.0431 22.172 39.0861 18.614 36.8781 17.259C36.0851 16.776 35.0541 16.981 34.5061 17.73C34.2841 18.029 33.3151 19 30.0001 19C26.6851 19 25.7161 18.029 25.5001 17.734C24.9501 16.978 23.9101 16.775 23.1161 17.267C20.8681 18.648 19.9291 22.267 19.5861 24.109C19.4631 24.113 19.3411 24.126 19.2201 24.148C18.8401 21.883 18.7591 18.656 20.6101 16.309ZM22.9001 36.229C22.4591 35.174 22.2281 34.043 22.2201 32.9C22.2201 32.348 21.7721 31.9 21.2201 31.9C20.9201 31.932 20.6181 31.852 20.3731 31.676C20.2631 31.528 20.2111 31.344 20.2291 31.16C20.2331 30.415 20.0811 29.678 19.7841 28.995C19.6981 28.787 19.5841 28.552 19.4601 28.295L19.3481 28.064C18.8601 27.145 18.9611 26.528 19.1951 26.279C19.3031 26.169 19.4531 26.108 19.6071 26.113C19.7431 26.113 19.8771 26.143 20.0001 26.2C20.2911 26.333 20.6281 26.319 20.9071 26.163C21.1861 26.006 21.3731 25.725 21.4101 25.407C21.5731 24.024 22.3571 20.27 24.0101 19.07C24.7691 19.987 26.4181 21 30.0001 21C33.5821 21 35.2291 19.989 35.9901 19.073C37.3811 20.09 38.2451 22.992 38.5701 25.25V25.266C38.5781 25.36 38.5941 25.454 38.6171 25.546C38.7051 25.827 38.9061 26.059 39.1721 26.185C39.4341 26.306 39.7341 26.311 40.0001 26.2C40.2541 26.046 40.5781 26.076 40.8001 26.273C41.0341 26.522 41.1351 27.139 40.6471 28.058L40.6301 28.093L40.5351 28.293C40.4101 28.55 40.2971 28.785 40.2121 28.993C39.9121 29.676 39.7631 30.416 39.7761 31.162C39.7891 31.348 39.7331 31.532 39.6211 31.681C39.3781 31.853 39.0811 31.932 38.7851 31.901C38.2331 31.901 37.7851 32.349 37.7851 32.901C37.7761 34.047 37.5411 35.18 37.0931 36.234C36.2261 37.295 35.1191 38.134 33.8641 38.683C33.5451 38.831 33.2641 39.048 33.0391 39.318C32.3011 40.274 31.2021 40.883 30.0001 41C28.8011 40.886 27.7041 40.28 26.9681 39.327C26.7511 39.061 26.4781 38.845 26.1681 38.695C24.8981 38.144 23.7781 37.299 22.9001 36.229ZM35.6121 45.11C35.6311 45.058 35.8461 44.368 35.9011 44.067C35.9061 44.044 35.9151 44.023 35.9191 44H36.0001C39.1581 43.999 42.0191 45.859 43.3001 48.745C41.7711 49.886 36.8861 52.955 30.0001 53C22.9381 53.046 18.2051 49.872 16.6941 48.745C17.9761 45.857 20.8401 43.996 24.0001 44H24.0831C24.0831 44.023 24.0961 44.044 24.1011 44.067C24.1561 44.368 24.3711 45.054 24.3901 45.11C25.2711 47.553 27.6191 49.161 30.1741 49.087C32.6081 49.017 34.7771 47.434 35.6121 45.11Z"
            fill="white" />
    </g>
    <defs>
        <clipPath id="clip0_14959_2">
            <rect width="60" height="60" fill="white" />
        </clipPath>
    </defs>
</svg>